<?xml version="1.0" standalone="no"?>
<!DOCTYPE svg PUBLIC "-//W3C//DTD SVG 20010904//EN"
 "http://www.w3.org/TR/2001/REC-SVG-20010904/DTD/svg10.dtd">
<svg version="1.0" xmlns="http://www.w3.org/2000/svg"
 width="500.000000pt" height="500.000000pt" viewBox="0 0 500.000000 500.000000"
 preserveAspectRatio="xMidYMid meet">
<metadata>
Created by potrace 1.14, written by Peter Selinger 2001-2017
</metadata>
<g transform="translate(0.000000,500.000000) scale(0.100000,-0.100000)"
fill="#000000" stroke="none">
<path d="M920 3903 c-138 -49 -242 -164 -275 -308 -22 -90 -21 -2294 1 -2374
42 -157 173 -281 329 -311 31 -6 620 -9 1555 -7 l1505 2 63 26 c116 49 192
125 241 241 l26 63 3 925 c2 665 0 942 -8 985 -34 174 -171 310 -344 341 -17
3 -339 5 -716 6 -397 0 -692 4 -702 9 -10 5 -57 66 -105 136 -108 155 -155
203 -241 245 l-67 33 -610 2 c-533 1 -616 0 -655 -14z"/>
</g>
</svg>
